<svg width="120" height="21" viewBox="0 0 120 21" fill="none" xmlns="http://www.w3.org/2000/svg">
<g clip-path="url(#clip0)">
<path d="M26.4106 0L15.7755 10.5439L10.5465 5.27197L15.7755 0H5.31758H5.22895L0 5.27197L15.8641 21L29.5126 7.46862H37.5775L45.1108 0H26.4106Z" fill="#BB0032"/>
<path d="M18.0796 20.8243L19.5862 19.3306L30.0441 8.9624H45.1106L37.5774 16.3432H33.2347L28.7147 20.8243H18.0796Z" fill="#BB0032"/>
<path d="M61.0633 0L64.8743 9.40167L72.762 0H77.8137L73.2051 20.7364H68.5966L71.6985 7.02929H71.4326L64.7856 14.9372H62.3041L59.2022 7.02929H58.9363L55.8344 20.8243H51.3145L55.923 0H61.0633Z" fill="#BB0032"/>
<path d="M87.2081 0L85.4356 7.90795L87.7399 7.64435L95.3617 0H101.122L91.1963 9.66527L97.2229 20.7364H91.1963L86.765 11.8619H84.4607L82.5109 20.7364H77.9023L82.5109 0H87.2081Z" fill="#BB0032"/>
<path d="M120 0L116.1 4.21757H108.035L107.326 7.46862H112.112C116.898 7.46862 119.823 9.57741 118.848 14.0586C117.873 18.364 113.885 20.8243 109.187 20.8243H99.7043L104.313 0H120ZM105.199 16.6067H109.985C112.289 16.6067 113.707 15.5523 114.062 14.0586C114.416 12.3891 113.353 11.5105 111.314 11.5105H106.351L105.199 16.6067Z" fill="#BB0032"/>
</g>
<defs>
<clipPath id="clip0">
<rect width="120" height="21" fill="white"/>
</clipPath>
</defs>
</svg>
